<?xml version="1.0" ?><svg data-name="Layer 1" id="Layer_1" viewBox="0 0 512 512" xmlns="http://www.w3.org/2000/svg"><defs><style>.cls-1{fill:#260600;}.cls-2{fill:#ffe4dd;}</style></defs><rect class="cls-1" height="419.17" rx="96.06" width="432" x="40" y="46.42"/><rect class="cls-1" height="379.17" rx="76.06" width="392" x="60" y="66.42"/><path class="cls-2" d="M153.76,291.18l-12.2,37.6a2.74,2.74,0,0,1-2.79,2H109.3c-1.77,0-2.28-1-2-2.54l50.81-146.58c1-2.79,2-5.84,2.54-15.49a1.7,1.7,0,0,1,1.52-1.78h40.65c1.27,0,1.77.25,2,1.52l57.66,162.58c.51,1.27.26,2.29-1.27,2.29h-33a2.57,2.57,0,0,1-2.8-1.78l-12.95-37.85ZM203,259.43C198,242.66,187.8,211.92,183,193.89h-.25c-4.07,17-13.21,45-19.82,65.54Z"/><path class="cls-2" d="M278.48,234c0-8.63-.51-21.84-1-27.43-.26-1.27.25-2,1.77-2h26.68c2,0,2.79.76,3.3,2a31,31,0,0,1,2,8.38A55.65,55.65,0,0,1,347.32,202c19.56,0,42.68,10.16,42.68,51.06v75.44c0,1.53-.51,2.29-2.29,2.29H357.23c-1.78,0-2.54-.76-2.54-2.29v-72.4c0-15.24-6.6-23.37-19.81-23.37a30.75,30.75,0,0,0-21.09,7.88v88.15c0,1.27-.76,2-2.28,2H280.77c-1.78,0-2.29-.76-2.29-2.29Z"/></svg>