<?xml version="1.0" ?><!DOCTYPE svg  PUBLIC '-//W3C//DTD SVG 1.1//EN'  'http://www.w3.org/Graphics/SVG/1.1/DTD/svg11.dtd'><svg enable-background="new 0 0 32 32" height="32px" id="_x3C_Layer_x3E_" version="1.1" viewBox="0 0 32 32" width="32px" xml:space="preserve" xmlns="http://www.w3.org/2000/svg" xmlns:xlink="http://www.w3.org/1999/xlink"><g><g id="Gmail"><g><g><path d="M8.591,16.312L1,10.627V7.745c0-1.912,1.56-3.468,3.478-3.468c0.743,0,1.458,0.241,2.067,0.697      l2.045,1.534V16.312z M2,10.127l5.591,4.187V7.008L5.946,5.775C5.511,5.45,5.003,5.277,4.478,5.277C3.286,5.277,2,6.221,2,7.745      V10.127z" fill="#263238"/></g><g><path d="M23.409,16.312V6.508l2.045-1.533c0.61-0.457,1.325-0.698,2.068-0.698C29.44,4.277,31,5.833,31,7.745      v2.882L23.409,16.312z M24.409,7.008v7.306L30,10.127V7.745c0-1.524-1.286-2.468-2.478-2.468c-0.525,0-1.033,0.172-1.469,0.498      L24.409,7.008z" fill="#263238"/></g></g><g><path d="M28.523,27h-4.614c-0.276,0-0.5-0.224-0.5-0.5v-9c0-0.276,0.224-0.5,0.5-0.5s0.5,0.224,0.5,0.5V26h4.114     C29.337,26,30,25.338,30,24.525V7.745c0-0.952-0.508-1.774-1.36-2.201c-0.855-0.428-1.822-0.342-2.587,0.231L16.3,13.081     c-0.178,0.133-0.422,0.133-0.6,0L5.946,5.775C5.181,5.204,4.214,5.117,3.36,5.544C2.509,5.971,2,6.793,2,7.745v16.78     C2,25.338,2.663,26,3.477,26h4.114v-8.5c0-0.276,0.224-0.5,0.5-0.5s0.5,0.224,0.5,0.5v9c0,0.276-0.224,0.5-0.5,0.5H3.477     C2.111,27,1,25.89,1,24.525V7.745C1,6.427,1.733,5.241,2.913,4.65c1.183-0.591,2.574-0.467,3.633,0.325L16,12.056l9.454-7.081     c1.061-0.792,2.452-0.917,3.634-0.324C30.267,5.241,31,6.427,31,7.745v16.78C31,25.89,29.889,27,28.523,27z" fill="#263238"/></g><g><path d="M16,21.736c-0.105,0-0.211-0.033-0.3-0.1l-7.909-5.923c-0.221-0.166-0.266-0.479-0.101-0.7     c0.166-0.22,0.479-0.267,0.7-0.101L16,20.611l7.609-5.699c0.221-0.165,0.535-0.12,0.7,0.101c0.166,0.221,0.12,0.535-0.101,0.7     L16.3,21.636C16.211,21.703,16.105,21.736,16,21.736z" fill="#263238"/></g></g></g></svg>